<svg width="140" height="52" viewBox="0 0 140 52" fill="none" xmlns="http://www.w3.org/2000/svg">
<path d="M45.416 31.96C43.1973 29.784 42.088 27.032 42.088 23.704C42.088 20.376 43.1973 17.6347 45.416 15.48C47.656 13.304 50.3867 12.216 53.608 12.216C56.104 12.216 58.3227 12.8773 60.264 14.2C62.2053 15.5227 63.56 17.3573 64.328 19.704H57.8C56.9467 18.0613 55.5813 17.24 53.704 17.24C51.8267 17.24 50.344 17.8267 49.256 19C48.1893 20.1733 47.656 21.7413 47.656 23.704C47.656 25.6667 48.1893 27.2347 49.256 28.408C50.344 29.5813 51.8267 30.168 53.704 30.168C55.5813 30.168 56.9467 29.3467 57.8 27.704H64.328C63.56 30.0507 62.2053 31.8853 60.264 33.208C58.3227 34.5307 56.104 35.192 53.608 35.192C50.3867 35.192 47.656 34.1147 45.416 31.96ZM75.4215 30.36H77.3735V35H74.5895C72.5842 35 71.0268 34.5627 69.9175 33.688C68.8295 32.792 68.2855 31.2667 68.2855 29.112V21.688H66.6215V17.144H68.2855V12.792H73.7575V17.144H77.3415V21.688H73.7575V29.112C73.7575 29.944 74.3122 30.36 75.4215 30.36ZM86.5908 17.144V19.768C87.7214 17.8907 89.5241 16.952 91.9988 16.952C93.3214 16.952 94.4948 17.2507 95.5188 17.848C96.5641 18.4453 97.3748 19.2987 97.9508 20.408C98.6121 19.3627 99.4654 18.5307 100.511 17.912C101.577 17.272 102.761 16.952 104.063 16.952C106.239 16.952 107.967 17.624 109.247 18.968C110.527 20.312 111.167 22.1787 111.167 24.568V35H105.727V25.304C105.727 24.152 105.417 23.2667 104.799 22.648C104.201 22.008 103.369 21.688 102.303 21.688C101.236 21.688 100.393 22.008 99.7748 22.648C99.1774 23.2667 98.8788 24.152 98.8788 25.304V35H93.4388V25.304C93.4388 24.152 93.1294 23.2667 92.5108 22.648C91.9134 22.008 91.0814 21.688 90.0148 21.688C88.9481 21.688 88.1054 22.008 87.4868 22.648C86.8894 23.2667 86.5908 24.152 86.5908 25.304V35H81.1188V17.144H86.5908ZM114.59 22.52C114.59 20.9413 115.262 19.6187 116.606 18.552C117.95 17.4853 119.764 16.952 122.046 16.952C124.35 16.952 126.206 17.4747 127.614 18.52C129.022 19.5653 129.769 20.9947 129.854 22.808H124.254C124.19 22.1893 123.977 21.7733 123.614 21.56C123.252 21.3253 122.708 21.208 121.982 21.208C120.553 21.208 119.838 21.6453 119.838 22.52C119.838 23.3093 120.713 23.8533 122.462 24.152C124.233 24.4507 125.844 24.9093 127.294 25.528C128.041 25.8267 128.66 26.328 129.15 27.032C129.662 27.7147 129.918 28.5573 129.918 29.56C129.918 31.224 129.204 32.5893 127.774 33.656C126.345 34.7013 124.542 35.224 122.366 35.224C120.19 35.224 118.377 34.7333 116.926 33.752C115.476 32.7493 114.686 31.2773 114.558 29.336H120.158C120.308 30.424 121.076 30.968 122.462 30.968C123.102 30.968 123.625 30.8187 124.03 30.52C124.457 30.2213 124.67 29.8373 124.67 29.368C124.67 28.8987 124.318 28.5253 123.614 28.248C122.932 27.9707 122.1 27.736 121.118 27.544C120.137 27.352 119.145 27.1173 118.142 26.84C117.161 26.5413 116.318 26.04 115.614 25.336C114.932 24.6107 114.59 23.672 114.59 22.52Z" fill="white"/>
<circle cx="137" cy="32" r="3" fill="#008772"/>
<g clip-path="url(#clip0)">
<path d="M26.2071 32.1069L21.0358 23.1992C20.3905 22.0871 20.9872 20.7858 22.1204 20.8334L23.3558 20.887C24.5637 20.9393 25.1329 19.4727 24.3355 18.3618L16.0586 6.81356C15.7871 6.43532 15.4159 6.19267 15.033 6.10584C14.65 6.01901 14.2592 6.08919 13.947 6.3354L4.43333 13.8538C3.51658 14.577 3.8825 16.2541 5.06155 16.743L6.26814 17.2425C7.37374 17.7016 7.78687 19.2313 7.01701 20.0234L0.858147 26.3655C0.0109093 27.2362 0.607648 28.9418 1.85752 29.2249L6.21568 30.2121C7.38555 30.4774 8.37836 31.5039 8.69181 32.7754C9.00789 34.0635 9.33839 35.5444 9.30823 36.013C9.25052 36.8956 9.87218 37.7638 10.6971 37.9506L15.1733 38.964C15.9969 39.1507 16.713 38.5857 16.7694 37.702C16.7996 37.2286 17.3229 35.9083 17.8003 34.7914C18.2567 33.7221 19.3256 33.181 20.4692 33.4403L24.8719 34.437C26.1205 34.7201 26.9166 33.3308 26.2071 32.1069Z" fill="#B20808"/>
<path d="M26.3382 32.0722L21.1669 23.1645C20.5217 22.0524 21.1184 20.7511 22.2516 20.7987L23.487 20.8522C24.6949 20.9046 25.2641 19.438 24.4667 18.3271L16.1897 6.77883C15.9183 6.40059 15.5471 6.15794 15.1641 6.07111C14.7812 5.98428 14.3904 6.05446 14.0782 6.30067L4.5645 13.8191C3.64775 14.5423 4.01366 16.2194 5.19271 16.7082L6.3993 17.2078C7.50491 17.6669 7.91803 19.1965 7.14818 19.9887L0.989311 26.3308C0.142074 27.2014 0.738812 28.9071 1.98868 29.1902L6.34684 30.1774C7.51671 30.4426 8.50953 31.4691 8.82298 32.7406C9.13905 34.0288 9.46955 35.5096 9.43939 35.9783C9.38168 36.8608 10.0033 37.7291 10.8283 37.9159L15.3045 38.9293C16.1281 39.116 16.8442 38.551 16.9006 37.6673C16.9307 37.1939 17.454 35.8736 17.9314 34.7567C18.3878 33.6874 19.4567 33.1462 20.6004 33.4055L25.0031 34.4023C26.2517 34.6854 27.0478 33.2961 26.3382 32.0722Z" fill="#B40909"/>
<path d="M26.4692 32.0379L21.2979 23.1302C20.6527 22.0181 21.2494 20.7169 22.3825 20.7644L23.618 20.818C24.8259 20.8703 25.3951 19.4037 24.5977 18.2928L16.3207 6.74456C16.0492 6.36632 15.6781 6.12367 15.2951 6.03684C14.9122 5.95001 14.5213 6.02019 14.2092 6.2664L4.69548 13.7848C3.77873 14.508 4.14464 16.1851 5.32369 16.674L6.53028 17.1735C7.63589 17.6326 8.04902 19.1623 7.27916 19.9544L1.12029 26.2965C0.273055 27.1672 0.869794 28.8728 2.11967 29.1559L6.47782 30.1431C7.64769 30.4084 8.64051 31.4349 8.95396 32.7064C9.27003 33.9945 9.60054 35.4754 9.57037 35.944C9.51266 36.8266 10.1343 37.6949 10.9593 37.8816L15.4355 38.895C16.2591 39.0817 16.9752 38.5168 17.0316 37.633C17.0617 37.1596 17.585 35.8393 18.0624 34.7225C18.5188 33.6532 19.5877 33.112 20.7313 33.3713L25.1341 34.368C26.3827 34.6511 27.1787 33.2618 26.4692 32.0379Z" fill="#B60A09"/>
<path d="M26.6003 32.0032L21.429 23.0955C20.7838 21.9834 21.3805 20.6821 22.5136 20.7297L23.7491 20.7832C24.957 20.8356 25.5262 19.369 24.7288 18.2581L16.4518 6.70983C16.1803 6.33159 15.8092 6.08894 15.4262 6.00211C15.0433 5.91528 14.6524 5.98546 14.3403 6.23167L4.82658 13.7501C3.90983 14.4733 4.27574 16.1504 5.45479 16.6392L6.66139 17.1388C7.76699 17.5979 8.18012 19.1275 7.41026 19.9197L1.2514 26.2618C0.404159 27.1324 1.0009 28.8381 2.25077 29.1212L6.60893 30.1084C7.77879 30.3736 8.77161 31.4001 9.08506 32.6716C9.40114 33.9598 9.73164 35.4406 9.70147 35.9093C9.64377 36.7918 10.2654 37.6601 11.0904 37.8469L15.5666 38.8603C16.3902 39.047 17.1063 38.482 17.1627 37.5983C17.1928 37.1249 17.7161 35.8046 18.1935 34.6877C18.6499 33.6184 19.7188 33.0772 20.8624 33.3365L25.2652 34.3333C26.5138 34.6164 27.3098 33.2271 26.6003 32.0032Z" fill="#B80B0A"/>
<path d="M26.7317 31.9693L21.5604 23.0617C20.9152 21.9495 21.5119 20.6483 22.6451 20.6959L23.8805 20.7494C25.0884 20.8017 25.6576 19.3352 24.8602 18.2242L16.5832 6.67601C16.3118 6.29777 15.9406 6.05513 15.5576 5.9683C15.1747 5.88147 14.7838 5.95165 14.4717 6.19786L4.95799 13.7163C4.04124 14.4395 4.40715 16.1166 5.5862 16.6054L6.7928 17.105C7.8984 17.5641 8.31153 19.0937 7.54167 19.8859L1.3828 26.2279C0.535568 27.0986 1.13231 28.8043 2.38218 29.0873L6.74033 30.0746C7.9102 30.3398 8.90302 31.3663 9.21647 32.6378C9.53255 33.926 9.86305 35.4068 9.83288 35.8755C9.77386 36.758 10.3955 37.6263 11.2205 37.813L15.6967 38.8264C16.5203 39.0132 17.2364 38.4482 17.2928 37.5645C17.3229 37.0911 17.8462 35.7708 18.3236 34.6539C18.78 33.5846 19.8489 33.0434 20.9925 33.3027L25.3953 34.2995C26.6452 34.5825 27.4413 33.1933 26.7317 31.9693Z" fill="#BA0C0A"/>
<path d="M26.8628 31.9343L21.6915 23.0267C21.0463 21.9145 21.643 20.6133 22.7762 20.6609L24.0116 20.7144C25.2195 20.7667 25.7887 19.3002 24.9913 18.1892L16.7143 6.64101C16.4429 6.26277 16.0717 6.02012 15.6887 5.9333C15.3058 5.84647 14.9149 5.91664 14.6028 6.16286L5.08909 13.6813C4.17234 14.4045 4.53826 16.0816 5.71731 16.5704L6.9239 17.07C8.0295 17.5291 8.44263 19.0587 7.67277 19.8509L1.51391 26.1929C0.666671 27.0636 1.26341 28.7693 2.51328 29.0523L6.87144 30.0396C8.04131 30.3048 9.03412 31.3313 9.34757 32.6028C9.66365 33.891 9.99415 35.3718 9.96398 35.8405C9.90628 36.723 10.5279 37.5913 11.3529 37.778L15.8291 38.7914C16.6527 38.9782 17.3688 38.4132 17.4252 37.5294C17.4553 37.0561 17.9786 35.7358 18.456 34.6189C18.9124 33.5496 19.9813 33.0084 21.125 33.2677L25.5277 34.2644C26.7763 34.5475 27.5724 33.1583 26.8628 31.9343Z" fill="#BC0D0B"/>
<path d="M26.9941 31.9001L21.8228 22.9924C21.1775 21.8803 21.7742 20.5791 22.9074 20.6266L24.1428 20.6802C25.3507 20.7325 25.9199 19.2659 25.1225 18.155L16.8456 6.60677C16.5741 6.22853 16.2029 5.98588 15.82 5.89906C15.437 5.81223 15.0462 5.8824 14.734 6.12862L5.22032 13.647C4.30357 14.3702 4.66948 16.0473 5.84853 16.5362L7.05513 17.0357C8.16073 17.4949 8.57386 19.0245 7.804 19.8166L1.64513 26.1587C0.797897 27.0294 1.39463 28.735 2.64451 29.0181L7.00266 30.0053C8.17253 30.2706 9.16535 31.2971 9.4788 32.5686C9.79488 33.8567 10.1254 35.3376 10.0952 35.8062C10.0375 36.6888 10.6592 37.5571 11.4841 37.7438L15.9603 38.7572C16.7839 38.9439 17.5 38.379 17.5564 37.4952C17.5866 37.0218 18.1099 35.7015 18.5873 34.5847C19.0437 33.5154 20.1125 32.9742 21.2562 33.2335L25.6589 34.2302C26.9075 34.5133 27.7036 33.124 26.9941 31.9001Z" fill="#BE0F0C"/>
<path d="M27.125 31.866L21.9537 22.9583C21.3084 21.8462 21.9052 20.5449 23.0383 20.5925L24.2737 20.646C25.4816 20.6983 26.0508 19.2318 25.2534 18.1208L16.9765 6.57262C16.705 6.19438 16.3338 5.95174 15.9509 5.86491C15.5679 5.77808 15.1771 5.84825 14.865 6.09447L5.35124 13.6129C4.43449 14.3361 4.8004 16.0132 5.97945 16.502L7.18604 17.0016C8.29165 17.4607 8.70478 18.9903 7.93492 19.7825L1.77605 26.1246C0.928817 26.9952 1.52556 28.7009 2.77543 28.984L7.13358 29.9712C8.30345 30.2364 9.29627 31.2629 9.60972 32.5344C9.92579 33.8226 10.2563 35.3034 10.2261 35.7721C10.1684 36.6546 10.7901 37.5229 11.615 37.7096L16.0912 38.723C16.9148 38.9098 17.6309 38.3448 17.6873 37.4611C17.7175 36.9877 18.2408 35.6674 18.7182 34.5505C19.1746 33.4812 20.2435 32.94 21.3871 33.1993L25.7899 34.1961C27.0384 34.4791 27.8345 33.0899 27.125 31.866Z" fill="#C0100C"/>
<path d="M27.2559 31.8309L22.0846 22.9233C21.4393 21.8111 22.036 20.5099 23.1692 20.5575L24.4046 20.611C25.6125 20.6633 26.1817 19.1968 25.3843 18.0858L17.1074 6.53762C16.8359 6.15938 16.4647 5.91673 16.0818 5.8299C15.6988 5.74307 15.308 5.81325 14.9958 6.05946L5.48213 13.5779C4.56538 14.3011 4.93129 15.9782 6.11034 16.467L7.31693 16.9666C8.42254 17.4257 8.83567 18.9553 8.06581 19.7475L1.90563 26.0884C1.05839 26.959 1.65513 28.6647 2.905 28.9478L7.26316 29.935C8.43303 30.2002 9.42585 31.2267 9.7393 32.4982C10.0554 33.7864 10.3859 35.2672 10.3557 35.7359C10.298 36.6184 10.9197 37.4867 11.7446 37.6735L16.2208 38.6869C17.0444 38.8736 17.7605 38.3086 17.8169 37.4249C17.8471 36.9515 18.3704 35.6312 18.8478 34.5143C19.3042 33.445 20.373 32.9038 21.5167 33.1631L25.9194 34.1599C27.1693 34.4441 27.9654 33.0549 27.2559 31.8309Z" fill="#C2110D"/>
<path d="M27.3875 31.7967L22.2162 22.889C21.571 21.7769 22.1677 20.4756 23.3008 20.5232L24.5363 20.5767C25.7442 20.6291 26.3134 19.1625 25.516 18.0516L17.239 6.50335C16.9675 6.1251 16.5964 5.88246 16.2134 5.79563C15.8305 5.7088 15.4396 5.77898 15.1275 6.02519L5.61378 13.5436C4.69703 14.2668 5.06295 15.9439 6.242 16.4327L7.44859 16.9323C8.55419 17.3914 8.96732 18.921 8.19746 19.7132L2.03728 26.0541C1.19005 26.9248 1.78679 28.6304 3.03666 28.9135L7.39482 29.9007C8.56468 30.166 9.5575 31.1924 9.87095 32.464C10.187 33.7521 10.5175 35.233 10.4874 35.7016C10.4297 36.5842 11.0513 37.4524 11.8763 37.6392L16.3524 38.6526C17.1761 38.8393 17.8922 38.2743 17.9486 37.3906C17.9787 36.9172 18.502 35.5969 18.9794 34.48C19.4358 33.4107 20.5047 32.8696 21.6483 33.1289L26.0511 34.1256C27.301 34.4099 28.097 33.0206 27.3875 31.7967Z" fill="#C4120E"/>
<path d="M27.5184 31.7619L22.3471 22.8543C21.7018 21.7421 22.2986 20.4409 23.4317 20.4885L24.6671 20.542C25.875 20.5943 26.4442 19.1278 25.6468 18.0168L17.3699 6.46862C17.0984 6.09038 16.7272 5.84773 16.3443 5.7609C15.9613 5.67407 15.5705 5.74425 15.2584 5.99046L5.74464 13.5089C4.82789 14.2321 5.1938 15.9092 6.37285 16.398L7.57945 16.8976C8.68505 17.3567 9.09818 18.8863 8.32832 19.6785L2.16814 26.0194C1.32091 26.89 1.91765 28.5957 3.16752 28.8788L7.52567 29.866C8.69554 30.1312 9.68836 31.1577 10.0018 32.4292C10.3179 33.7174 10.6484 35.1982 10.6182 35.6669C10.5605 36.5494 11.1822 37.4177 12.0071 37.6045L16.4833 38.6179C17.3069 38.8046 18.023 38.2396 18.0794 37.3559C18.1096 36.8825 18.6329 35.5622 19.1103 34.4453C19.5667 33.376 20.6356 32.8348 21.7792 33.0941L26.1819 34.0909C27.4318 34.3751 28.2279 32.9859 27.5184 31.7619Z" fill="#C6130E"/>
<path d="M27.6495 31.7281L22.4782 22.8205C21.8329 21.7083 22.4297 20.4071 23.5628 20.4547L24.7983 20.5082C26.0062 20.5605 26.5754 19.094 25.778 17.983L17.501 6.4348C17.2295 6.05656 16.8584 5.81392 16.4754 5.72709C16.0924 5.64026 15.7016 5.71044 15.3895 5.95665L5.87574 13.4751C4.959 14.1982 5.32491 15.8753 6.50396 16.3642L7.71055 16.8638C8.81616 17.3229 9.22928 18.8525 8.45942 19.6447L2.29925 25.9855C1.45201 26.8562 2.04875 28.5619 3.29862 28.8449L7.65678 29.8322C8.82665 30.0974 9.81946 31.1239 10.1329 32.3954C10.449 33.6836 10.7795 35.1644 10.7493 35.633C10.6916 36.5156 11.3133 37.3839 12.1382 37.5706L16.6144 38.584C17.438 38.7708 18.1541 38.2058 18.2105 37.322C18.2407 36.8486 18.764 35.5284 19.2414 34.4115C19.6978 33.3422 20.7667 32.801 21.9103 33.0603L26.313 34.057C27.5629 34.3413 28.359 32.9521 27.6495 31.7281Z" fill="#C8140F"/>
<path d="M27.7807 31.6933L22.6094 22.7856C21.9641 21.6735 22.5609 20.3722 23.694 20.4198L24.9295 20.4733C26.1374 20.5257 26.7066 19.0591 25.9092 17.9482L17.6322 6.39995C17.3607 6.02171 16.9896 5.77907 16.6066 5.69224C16.2237 5.60541 15.8328 5.67559 15.5207 5.9218L6.00697 13.4402C5.09022 14.1634 5.45613 15.8405 6.63518 16.3294L7.84178 16.8289C8.94738 17.288 9.36051 18.8177 8.59065 19.6098L2.43047 25.9507C1.58324 26.8214 2.17997 28.527 3.42985 28.8101L7.788 29.7973C8.95787 30.0626 9.95069 31.0891 10.2641 32.3606C10.5802 33.6487 10.9107 35.1296 10.8806 35.5982C10.8228 36.4808 11.4445 37.349 12.2694 37.5358L16.7456 38.5492C17.5693 38.7359 18.2854 38.1709 18.3417 37.2872C18.3719 36.8138 18.8952 35.4935 19.3726 34.3766C19.829 33.3073 20.8979 32.7662 22.0415 33.0254L26.4443 34.0222C27.6941 34.3065 28.4902 32.9172 27.7807 31.6933Z" fill="#CA150F"/>
<path d="M27.9118 31.6575L22.7405 22.7498C22.0952 21.6377 22.692 20.3364 23.8251 20.384L25.0606 20.4375C26.2685 20.4899 26.8377 19.0233 26.0403 17.9124L17.7633 6.36412C17.4918 5.98588 17.1207 5.74324 16.7377 5.65641C16.3548 5.56958 15.9639 5.63976 15.6518 5.88597L6.13807 13.4044C5.22132 14.1276 5.58724 15.8047 6.76629 16.2935L7.97288 16.7931C9.07848 17.2522 9.49161 18.7818 8.72175 19.574L2.56158 25.9149C1.71434 26.7855 2.31108 28.4912 3.56095 28.7743L7.91911 29.7615C9.08898 30.0268 10.0818 31.0532 10.3952 32.3247C10.7113 33.6129 11.0418 35.0937 11.0117 35.5624C10.9539 36.4449 11.5756 37.3132 12.4005 37.5L16.8767 38.5134C17.7004 38.7001 18.4165 38.1351 18.4728 37.2514C18.503 36.778 19.0263 35.4577 19.5037 34.3408C19.9601 33.2715 21.029 32.7303 22.1726 32.9896L26.5754 33.9864C27.8252 34.2707 28.6213 32.8814 27.9118 31.6575Z" fill="#CC1610"/>
<path d="M28.0427 31.6238L22.8714 22.7161C22.2262 21.604 22.8229 20.3027 23.9561 20.3503L25.1915 20.4038C26.3994 20.4562 26.9686 18.9896 26.1712 17.8787L17.8942 6.33043C17.6228 5.95219 17.2516 5.70955 16.8686 5.62272C16.4857 5.53589 16.0948 5.60607 15.7827 5.85228L6.26899 13.3707C5.35225 14.0939 5.71816 15.771 6.89721 16.2598L8.1038 16.7594C9.2094 17.2185 9.62253 18.7481 8.85267 19.5403L2.6925 25.8812C1.84526 26.7518 2.442 28.4575 3.69187 28.7406L8.05003 29.7278C9.2199 29.9931 10.2127 31.0195 10.5262 32.291C10.8422 33.5792 11.1727 35.06 11.1426 35.5287C11.0849 36.4112 11.7065 37.2795 12.5315 37.4663L17.0077 38.4797C17.8313 38.6664 18.5474 38.1014 18.6038 37.2177C18.6339 36.7443 19.1572 35.424 19.6346 34.3071C20.091 33.2378 21.1599 32.6966 22.3035 32.9559L26.7063 33.9527C27.9562 34.237 28.7523 32.8465 28.0427 31.6238Z" fill="#CE1711"/>
<path d="M28.1741 31.5877L23.0028 22.68C22.3576 21.5679 22.9543 20.2667 24.0875 20.3143L25.3229 20.3678C26.5308 20.4201 27.1 18.9535 26.3026 17.8426L18.0257 6.29558C17.7542 5.91734 17.383 5.6747 17 5.58787C16.6171 5.50104 16.2263 5.57122 15.9141 5.81743L6.4004 13.3358C5.48365 14.059 5.84957 15.7361 7.02862 16.225L8.23521 16.7245C9.34081 17.1837 9.75394 18.7133 8.98408 19.5054L2.82391 25.8463C1.97667 26.717 2.57341 28.4226 3.82328 28.7057L8.18144 29.693C9.35131 29.9582 10.3441 30.9847 10.6576 32.2562C10.9736 33.5443 11.3041 35.0252 11.274 35.4938C11.2163 36.3764 11.8379 37.2447 12.6629 37.4314L17.1391 38.4448C17.9627 38.6316 18.6788 38.0666 18.7352 37.1828C18.7653 36.7094 19.2886 35.3892 19.766 34.2723C20.2224 33.203 21.2913 32.6618 22.435 32.9211L26.8377 33.9178C28.0876 34.2021 28.8837 32.8117 28.1741 31.5877Z" fill="#D01811"/>
<path d="M28.3053 31.5538L23.134 22.6461C22.4887 21.534 23.0855 20.2328 24.2186 20.2804L25.4541 20.3339C26.662 20.3862 27.2312 18.9196 26.4338 17.8087L18.1568 6.26049C17.8853 5.88225 17.5142 5.6396 17.1312 5.55277C16.7482 5.46594 16.3574 5.53612 16.0453 5.78233L6.53157 13.3019C5.61482 14.0251 5.98073 15.7022 7.15978 16.1911L8.36637 16.6906C9.47198 17.1498 9.8851 18.6794 9.11525 19.4715L2.95507 25.8124C2.10783 26.6831 2.70457 28.3887 3.95444 28.6718L8.3126 29.6591C9.48247 29.9243 10.4753 30.9508 10.7887 32.2223C11.1048 33.5104 11.4353 34.9913 11.4051 35.4599C11.3474 36.3425 11.9691 37.2108 12.794 37.3975L17.2702 38.4109C18.0939 38.5977 18.8099 38.0327 18.8663 37.1489C18.8965 36.6755 19.4198 35.3553 19.8972 34.2384C20.3536 33.1691 21.4225 32.6279 22.5661 32.8872L26.9689 33.8839C28.2187 34.1682 29.0148 32.7778 28.3053 31.5538Z" fill="#D11A12"/>
<path d="M28.4365 31.5196L23.2652 22.6119C22.6199 21.4998 23.2166 20.1985 24.3498 20.2461L25.5852 20.2996C26.7931 20.352 27.3623 18.8854 26.5649 17.7745L18.288 6.22625C18.0165 5.84801 17.6453 5.60536 17.2624 5.51853C16.8794 5.4317 16.4886 5.50188 16.1764 5.74809L6.66273 13.2677C5.74598 13.9909 6.1119 15.668 7.29095 16.1568L8.49754 16.6564C9.60314 17.1155 10.0163 18.6451 9.24641 19.4373L3.08624 25.7782C2.239 26.6488 2.83574 28.3545 4.08561 28.6376L8.44377 29.6248C9.61364 29.8901 10.6064 30.9165 10.9199 32.188C11.236 33.4762 11.5665 34.9571 11.5363 35.4257C11.4786 36.3083 12.1003 37.1765 12.9252 37.3633L17.4014 38.3767C18.225 38.5634 18.9411 37.9984 18.9975 37.1147C19.0277 36.6413 19.551 35.321 20.0284 34.2041C20.4848 33.1348 21.5536 32.5936 22.6973 32.8529L27.1 33.8497C28.3499 34.134 29.146 32.7435 28.4365 31.5196Z" fill="#D31B12"/>
<path d="M28.568 31.4847L23.3967 22.577C22.7514 21.4649 23.3481 20.1637 24.4813 20.2113L25.7167 20.2648C26.9246 20.3171 27.4938 18.8505 26.6964 17.7396L18.4195 6.19139C18.148 5.81315 17.7768 5.57051 17.3939 5.48368C17.0109 5.39685 16.6201 5.46703 16.3079 5.71324L6.79423 13.2328C5.87748 13.956 6.2434 15.6331 7.42245 16.122L8.62904 16.6215C9.73464 17.0807 10.1478 18.6103 9.37791 19.4024L3.21905 25.7433C2.37181 26.614 2.96855 28.3196 4.21842 28.6027L8.57658 29.59C9.74645 29.8552 10.7393 30.8817 11.0527 32.1532C11.3688 33.4413 11.6993 34.9222 11.6691 35.3908C11.6114 36.2734 12.2331 37.1417 13.058 37.3284L17.5342 38.3418C18.3578 38.5286 19.0739 37.9636 19.1303 37.0798C19.1605 36.6064 19.6838 35.2862 20.1612 34.1693C20.6176 33.1 21.6865 32.5588 22.8301 32.8181L27.2328 33.8148C28.4814 34.0991 29.2775 32.7087 28.568 31.4847Z" fill="#D51C13"/>
<path d="M28.6986 31.4501L23.5273 22.5424C22.882 21.4303 23.4787 20.129 24.6119 20.1766L25.8473 20.2301C27.0552 20.2825 27.6244 18.8159 26.827 17.705L18.5501 6.15673C18.2786 5.77849 17.9074 5.53584 17.5245 5.44901C17.1415 5.36218 16.7507 5.43236 16.4385 5.67857L6.92482 13.1982C6.00807 13.9214 6.37398 15.5985 7.55303 16.0873L8.75962 16.5869C9.86523 17.046 10.2784 18.5756 9.5085 19.3678L3.34832 25.7087C2.50108 26.5793 3.09782 28.285 4.34769 28.5681L8.70585 29.5553C9.87572 29.8205 10.8685 30.847 11.182 32.1185C11.4981 33.4067 11.8286 34.8875 11.7984 35.3562C11.7407 36.2387 12.3623 37.107 13.1873 37.2938L17.6635 38.3072C18.4871 38.4939 19.2032 37.9289 19.2596 37.0452C19.2898 36.5718 19.8131 35.2515 20.2904 34.1346C20.7469 33.0653 21.8157 32.5241 22.9594 32.7834L27.3621 33.7802C28.612 34.0644 29.4081 32.674 28.6986 31.4501Z" fill="#D71D14"/>
<path d="M28.8297 31.4152L23.6584 22.5075C23.0131 21.3954 23.6098 20.0942 24.743 20.1417L25.9784 20.1953C27.1863 20.2476 27.7555 18.781 26.9581 17.6701L18.6812 6.12188C18.4097 5.74364 18.0385 5.50099 17.6556 5.41416C17.2726 5.32733 16.8818 5.39751 16.5696 5.64372L7.05592 13.1633C6.13917 13.8865 6.50508 15.5636 7.68413 16.0525L8.89073 16.552C9.99633 17.0112 10.4095 18.5408 9.6396 19.3329L3.47942 25.6738C2.63219 26.5445 3.22892 28.2501 4.4788 28.5332L8.83695 29.5204C10.0068 29.7857 10.9996 30.8122 11.3131 32.0837C11.6292 33.3718 11.9597 34.8527 11.9295 35.3213C11.8718 36.2039 12.4935 37.0722 13.3184 37.2589L17.7946 38.2723C18.6182 38.459 19.3343 37.8941 19.3907 37.0103C19.4209 36.5369 19.9442 35.2166 20.4215 34.0998C20.878 33.0305 21.9468 32.4893 23.0905 32.7486L27.4932 33.7453C28.7431 34.0296 29.5392 32.6391 28.8297 31.4152Z" fill="#D91E14"/>
<path d="M28.9611 31.3814L23.7898 22.4737C23.1445 21.3616 23.7412 20.0604 24.8744 20.1079L26.1098 20.1615C27.3177 20.2138 27.8869 18.7472 27.0895 17.6363L18.8126 6.08806C18.5411 5.70982 18.1699 5.46718 17.787 5.38035C17.404 5.29352 17.0132 5.3637 16.701 5.60991L7.18733 13.1295C6.27058 13.8527 6.63649 15.5298 7.81554 16.0187L9.02213 16.5182C10.1277 16.9773 10.5409 18.507 9.77101 19.2991L3.61083 25.64C2.76359 26.5107 3.36033 28.2163 4.6102 28.4994L8.96836 29.4866C10.1382 29.7519 11.131 30.7784 11.4445 32.0499C11.7606 33.338 12.0911 34.8189 12.0609 35.2875C12.0032 36.1701 12.6249 37.0383 13.4498 37.2251L17.926 38.2385C18.7496 38.4252 19.4657 37.8602 19.5221 36.9765C19.5523 36.5031 20.0756 35.1828 20.553 34.0659C21.0094 32.9966 22.0782 32.4555 23.2219 32.7148L27.6246 33.7115C28.8745 33.9958 29.6706 32.6053 28.9611 31.3814Z" fill="#DB1F15"/>
<path d="M29.0923 31.3465L23.921 22.4388C23.2757 21.3267 23.8725 20.0255 25.0056 20.0731L26.2411 20.1266C27.449 20.1789 28.0182 18.7123 27.2208 17.6014L18.9438 6.05318C18.6723 5.67494 18.3012 5.4323 17.9182 5.34547C17.5352 5.25864 17.1444 5.32881 16.8323 5.57503L7.31855 13.0946C6.40181 13.8178 6.76772 15.4949 7.94677 15.9838L9.15336 16.4833C10.259 16.9425 10.6721 18.4721 9.90223 19.2642L3.74206 25.6051C2.89482 26.4758 3.49156 28.1814 4.74143 28.4645L9.09959 29.4517C10.2695 29.717 11.2623 30.7435 11.5757 32.015C11.8918 33.3031 12.2223 34.784 12.1921 35.2526C12.1344 36.1352 12.7561 37.0035 13.581 37.1902L18.0572 38.2036C18.8809 38.3904 19.5969 37.8254 19.6533 36.9416C19.6835 36.4682 20.2068 35.148 20.6842 34.0311C21.1406 32.9618 22.2095 32.4206 23.3531 32.6799L27.7559 33.6766C29.0057 33.9609 29.8018 32.5704 29.0923 31.3465Z" fill="#DD2015"/>
<path d="M29.2234 31.3118L24.0521 22.4041C23.4068 21.292 24.0036 19.9908 25.1367 20.0384L26.3722 20.0919C27.5801 20.1442 28.1493 18.6776 27.3519 17.5667L19.0749 6.01848C18.8034 5.64024 18.4323 5.3976 18.0493 5.31077C17.6663 5.22394 17.2755 5.29412 16.9634 5.54033L7.44966 13.0599C6.53291 13.7831 6.89882 15.4602 8.07787 15.9491L9.28446 16.4486C10.3901 16.9078 10.8032 18.4374 10.0333 19.2295L3.87316 25.5704C3.02592 26.4411 3.62266 28.1467 4.87253 28.4298L9.23069 29.417C10.4006 29.6823 11.3934 30.7088 11.7068 31.9803C12.0229 33.2684 12.3534 34.7493 12.3232 35.2179C12.2655 36.1005 12.8872 36.9688 13.7121 37.1555L18.1883 38.1689C19.012 38.3556 19.728 37.7907 19.7844 36.9069C19.8146 36.4335 20.3379 35.1132 20.8153 33.9964C21.2717 32.9271 22.3406 32.3859 23.4842 32.6452L27.887 33.6419C29.1368 33.9262 29.9329 32.5357 29.2234 31.3118Z" fill="#DF2116"/>
<path d="M29.3545 31.2775L24.1832 22.3699C23.5379 21.2577 24.1347 19.9565 25.2678 20.0041L26.5033 20.0576C27.7112 20.1099 28.2804 18.6434 27.483 17.5324L19.206 5.98421C18.9345 5.60597 18.5634 5.36333 18.1804 5.2765C17.7974 5.18967 17.4066 5.25984 17.0945 5.50606L7.58076 13.0257C6.66401 13.7488 7.02992 15.4259 8.20897 15.9148L9.41557 16.4144C10.5212 16.8735 10.9343 18.4031 10.1644 19.1953L4.00426 25.5361C3.15703 26.4068 3.75377 28.1125 5.00364 28.3955L9.36179 29.3828C10.5317 29.648 11.5245 30.6745 11.8379 31.946C12.154 33.2342 12.4845 34.715 12.4543 35.1837C12.3966 36.0662 13.0183 36.9345 13.8432 37.1212L18.3194 38.1346C19.1431 38.3214 19.8591 37.7564 19.9155 36.8727C19.9457 36.3993 20.469 35.079 20.9464 33.9621C21.4028 32.8928 22.4717 32.3516 23.6153 32.6109L28.0181 33.6077C29.2679 33.8919 30.064 32.5015 29.3545 31.2775Z" fill="#E12217"/>
<path d="M29.4854 31.2428L24.3141 22.3351C23.6689 21.223 24.2656 19.9218 25.3987 19.9693L26.6342 20.0229C27.8421 20.0752 28.4113 18.6086 27.6139 17.4977L19.3369 5.94948C19.0654 5.57124 18.6943 5.3286 18.3113 5.24177C17.9284 5.15494 17.5375 5.22512 17.2254 5.47133L7.71168 12.9909C6.79493 13.7141 7.16085 15.3912 8.3399 15.8801L9.54649 16.3796C10.6521 16.8388 11.0652 18.3684 10.2954 19.1605L4.13519 25.5014C3.28795 26.3721 3.88469 28.0777 5.13456 28.3608L9.49272 29.348C10.6626 29.6133 11.6554 30.6398 11.9689 31.9113C12.2849 33.1994 12.6154 34.6803 12.5853 35.1489C12.5276 36.0315 13.1492 36.8998 13.9742 37.0865L18.4503 38.0999C19.274 38.2866 19.9901 37.7217 20.0465 36.8379C20.0766 36.3645 20.5999 35.0442 21.0773 33.9274C21.5337 32.8581 22.6026 32.3169 23.7462 32.5762L28.149 33.5729C29.3989 33.8572 30.1949 32.4667 29.4854 31.2428Z" fill="#E32317"/>
<path d="M29.6166 31.2089L24.4453 22.3012C23.8001 21.1891 24.3968 19.8878 25.53 19.9354L26.7654 19.9889C27.9733 20.0412 28.5425 18.5747 27.7451 17.4637L19.4682 5.91552C19.1967 5.53728 18.8255 5.29463 18.4426 5.2078C18.0596 5.12097 17.6688 5.19115 17.3566 5.43736L7.84291 12.957C6.92616 13.6801 7.29207 15.3573 8.47112 15.8461L9.67771 16.3457C10.7833 16.8048 11.1964 18.3344 10.4266 19.1266L4.26641 25.4675C3.41917 26.3381 4.01591 28.0438 5.26578 28.3269L9.62394 29.3141C10.7938 29.5793 11.7866 30.6058 12.1001 31.8773C12.4162 33.1655 12.7467 34.6463 12.7165 35.115C12.6588 35.9975 13.2804 36.8658 14.1054 37.0525L18.5816 38.0659C19.4052 38.2527 20.1213 37.6877 20.1777 36.804C20.2078 36.3306 20.7311 35.0103 21.2085 33.8934C21.6649 32.8241 22.7338 32.2829 23.8775 32.5422L28.2802 33.539C29.5301 33.8232 30.3262 32.4328 29.6166 31.2089Z" fill="#E52518"/>
<path d="M29.7477 31.174L24.5765 22.2663C23.9312 21.1542 24.5279 19.853 25.6611 19.9005L26.8965 19.9541C28.1044 20.0064 28.6736 18.5398 27.8762 17.4289L19.5993 5.88066C19.3278 5.50242 18.9566 5.25978 18.5737 5.17295C18.1907 5.08612 17.7999 5.1563 17.4877 5.40251L7.97401 12.9221C7.05726 13.6453 7.42317 15.3224 8.60222 15.8113L9.80882 16.3108C10.9144 16.7699 11.3275 18.2996 10.5577 19.0917L4.39751 25.4326C3.55028 26.3033 4.14702 28.0089 5.39689 28.292L9.75504 29.2792C10.9249 29.5445 11.9177 30.571 12.2312 31.8425C12.5473 33.1306 12.8778 34.6115 12.8476 35.0801C12.7899 35.9627 13.4115 36.831 14.2365 37.0177L18.7127 38.0311C19.5363 38.2178 20.2524 37.6529 20.3088 36.7691C20.339 36.2957 20.8622 34.9754 21.3396 33.8586C21.796 32.7893 22.8649 32.2481 24.0086 32.5074L28.4113 33.5041C29.6612 33.7872 30.4573 32.3979 29.7477 31.174Z" fill="#E72619"/>
<path d="M29.879 31.1398L24.7077 22.2321C24.0624 21.12 24.6592 19.8187 25.7923 19.8663L27.0278 19.9198C28.2357 19.9722 28.8049 18.5056 28.0075 17.3947L19.7305 5.84642C19.459 5.46818 19.0879 5.22554 18.7049 5.13871C18.3219 5.05188 17.9311 5.12206 17.619 5.36827L8.10527 12.8867C7.18852 13.6099 7.55443 15.287 8.73348 15.7758L9.94007 16.2754C11.0457 16.7345 11.4588 18.2641 10.6889 19.0563L4.53008 25.3984C3.68285 26.269 4.27958 27.9747 5.52946 28.2578L9.88761 29.245C11.0575 29.5102 12.0503 30.5367 12.3637 31.8082C12.6798 33.0964 13.0103 34.5772 12.9802 35.0459C12.9225 35.9284 13.5441 36.7967 14.3691 36.9835L18.8452 37.9969C19.6689 38.1836 20.385 37.6186 20.4414 36.7349C20.4715 36.2615 20.9948 34.9412 21.4722 33.8243C21.9286 32.755 22.9975 32.2138 24.1411 32.4731L28.5439 33.4699C29.7924 33.753 30.5885 32.3637 29.879 31.1398Z" fill="#E92719"/>
<path d="M30.0103 31.105L24.839 22.1973C24.1937 21.0852 24.7904 19.784 25.9236 19.8316L27.159 19.8851C28.3669 19.9374 28.9361 18.4709 28.1387 17.3599L19.8618 5.81169C19.5903 5.43345 19.2191 5.19081 18.8362 5.10398C18.4532 5.01715 18.0624 5.08733 17.7502 5.33354L8.23652 12.852C7.31977 13.5751 7.68569 15.2522 8.86474 15.7411L10.0713 16.2407C11.1769 16.6998 11.5901 18.2294 10.8202 19.0216L4.66003 25.3624C3.81279 26.2331 4.40953 27.9388 5.6594 28.2218L10.0176 29.2091C11.1874 29.4743 12.1802 30.5008 12.4937 31.7723C12.8098 33.0605 13.1403 34.5413 13.1101 35.0099C13.0524 35.8925 13.6741 36.7608 14.499 36.9475L18.9752 37.9609C19.7988 38.1477 20.5149 37.5827 20.5713 36.6989C20.6015 36.2255 21.1248 34.9053 21.6022 33.7884C22.0586 32.7191 23.1274 32.1779 24.2711 32.4372L28.6738 33.4339C29.9237 33.7182 30.7198 32.329 30.0103 31.105Z" fill="#EB281A"/>
<path d="M30.1415 31.0711L24.9702 22.1634C24.3249 21.0513 24.9217 19.75 26.0548 19.7976L27.2903 19.8511C28.4982 19.9035 29.0674 18.4369 28.27 17.326L19.993 5.77773C19.7215 5.39949 19.3504 5.15684 18.9674 5.07001C18.5844 4.98319 18.1936 5.05336 17.8815 5.29958L8.36775 12.818C7.451 13.5412 7.81691 15.2183 8.99596 15.7071L10.2026 16.2067C11.3082 16.6658 11.7213 18.1954 10.9514 18.9876L4.79125 25.3285C3.94401 26.1991 4.54075 27.9048 5.79063 28.1879L10.1488 29.1751C11.3187 29.4403 12.3115 30.4668 12.6249 31.7383C12.941 33.0265 13.2715 34.5073 13.2413 34.976C13.1836 35.8585 13.8053 36.7268 14.6302 36.9136L19.1064 37.927C19.93 38.1137 20.6461 37.5487 20.7025 36.665C20.7327 36.1916 21.256 34.8713 21.7334 33.7544C22.1898 32.6851 23.2587 32.1439 24.4023 32.4032L28.8051 33.4C30.0549 33.6843 30.851 32.295 30.1415 31.0711Z" fill="#ED291A"/>
<path d="M30.2724 31.0363L25.1011 22.1287C24.4558 21.0165 25.0526 19.7153 26.1857 19.7629L27.4212 19.8164C28.6291 19.8687 29.1983 18.4022 28.4009 17.2912L20.1239 5.743C19.8524 5.36476 19.4813 5.12211 19.0983 5.03529C18.7153 4.94846 18.3245 5.01863 18.0124 5.26485L8.49867 12.7833C7.58192 13.5064 7.94783 15.1835 9.12688 15.6724L10.3335 16.172C11.4391 16.6311 11.8522 18.1607 11.0823 18.9529L4.92217 25.2937C4.07494 26.1644 4.67167 27.8701 5.92155 28.1531L10.2797 29.1404C11.4496 29.4056 12.4424 30.4321 12.7558 31.7036C13.0719 32.9918 13.4024 34.4726 13.3722 34.9412C13.3145 35.8238 13.9362 36.6921 14.7611 36.8788L19.2373 37.8922C20.061 38.079 20.777 37.514 20.8334 36.6302C20.8636 36.1569 21.3869 34.8366 21.8643 33.7197C22.3207 32.6504 23.3896 32.1092 24.5332 32.3685L28.936 33.3652C30.1858 33.6495 30.9819 32.2603 30.2724 31.0363Z" fill="#EF2A1B"/>
</g>
<defs>
<clipPath id="clip0">
<rect width="30.0769" height="34" fill="white" transform="translate(0.461914 5)"/>
</clipPath>
</defs>
</svg>
